<?xml version="1.0" standalone="no"?>
<svg xmlns:xlink="http://www.w3.org/1999/xlink" id="wave" style="transform:rotate(0deg); transition: 0.3s" viewBox="0 0 1440 170" version="1.1" xmlns="http://www.w3.org/2000/svg"><defs><linearGradient id="sw-gradient-0" x1="0" x2="0" y1="1" y2="0"><stop stop-color="rgba(246, 255, 248, 1)" offset="0%"/><stop stop-color="rgba(246, 243, 246, 1)" offset="100%"/></linearGradient></defs><path style="transform:translate(0, 0px); opacity:1" fill="url(#sw-gradient-0)" d="M0,119L48,107.7C96,96,192,74,288,68C384,62,480,74,576,90.7C672,108,768,130,864,133.2C960,136,1056,119,1152,93.5C1248,68,1344,34,1440,19.8C1536,6,1632,11,1728,22.7C1824,34,1920,51,2016,48.2C2112,45,2208,23,2304,28.3C2400,34,2496,68,2592,76.5C2688,85,2784,68,2880,53.8C2976,40,3072,28,3168,25.5C3264,23,3360,28,3456,48.2C3552,68,3648,102,3744,99.2C3840,96,3936,57,4032,42.5C4128,28,4224,40,4320,51C4416,62,4512,74,4608,87.8C4704,102,4800,119,4896,124.7C4992,130,5088,125,5184,107.7C5280,91,5376,62,5472,48.2C5568,34,5664,34,5760,48.2C5856,62,5952,91,6048,102C6144,113,6240,108,6336,110.5C6432,113,6528,125,6624,113.3C6720,102,6816,68,6864,51L6912,34L6912,170L6864,170C6816,170,6720,170,6624,170C6528,170,6432,170,6336,170C6240,170,6144,170,6048,170C5952,170,5856,170,5760,170C5664,170,5568,170,5472,170C5376,170,5280,170,5184,170C5088,170,4992,170,4896,170C4800,170,4704,170,4608,170C4512,170,4416,170,4320,170C4224,170,4128,170,4032,170C3936,170,3840,170,3744,170C3648,170,3552,170,3456,170C3360,170,3264,170,3168,170C3072,170,2976,170,2880,170C2784,170,2688,170,2592,170C2496,170,2400,170,2304,170C2208,170,2112,170,2016,170C1920,170,1824,170,1728,170C1632,170,1536,170,1440,170C1344,170,1248,170,1152,170C1056,170,960,170,864,170C768,170,672,170,576,170C480,170,384,170,288,170C192,170,96,170,48,170L0,170Z"/></svg>